======================yING YANG TWINS FT. LIL WAYNE SALT SHAKER==================

Format                           : AVI
Format/Info                      : Audio Video Interleave
File size                        : 61.1 MiB
Duration                         : 4mn 1s
Overall bit rate                 : 2 120 Kbps
Writing application              : VirtualDubMod 1.5.10.2 (build 2540/release)
Writing library                  : VirtualDubMod build 2540/release

Video
Format                           : x264
Codec ID                         : x264
Duration                         : 4mn 1s
Bit rate                         : 1 889 Kbps
Width                            : 640 pixels
Height                           : 480 pixels
Display aspect ratio             : 4:3
Frame rate                       : 29.970 fps
Bits/(Pixel*Frame)               : 0.205
Stream size                      : 54.4 MiB (89%)

Audio
ID                               : 1
Format                           : MPEG Audio
Format version                   : Version 1
Format profile                   : Layer 3
Mode                             : Joint stereo
Mode extension                   : MS Stereo
Codec ID                         : 55
Codec ID/Hint                    : MP3
Duration                         : 4mn 1s
Bit rate mode                    : Variable
Bit rate                         : 215 Kbps
Minimum bit rate                 : 32.0 Kbps
Channel(s)                       : 2 channels
Sampling rate                    : 44.1 KHz
Stream size                      : 6.27 MiB (10%)
Alignment                        : Aligned on interleaves
Interleave, duration             : 26 ms (0.78 video frame)
Interleave, preload duration     : 279 ms
Writing library                  : LAME3.98 
Encoding settings                : -m j -V 2 -q 0 -lowpass 18.5 --vbr-new -b 32

===========================SCREEN-SHOT==========================================

                         http://bayimg.com/LAdBKaAdO

================================================================================

